<svg width="114" height="34" viewBox="0 0 114 34" fill="none" xmlns="http://www.w3.org/2000/svg">
<path d="M17.4043 19.8633C17.4043 21.3867 17.0352 22.7109 16.2969 23.8359C15.5586 24.9609 14.4805 25.8281 13.0625 26.4375C11.6562 27.0469 9.94531 27.3516 7.92969 27.3516C7.03906 27.3516 6.16602 27.293 5.31055 27.1758C4.4668 27.0586 3.65234 26.8887 2.86719 26.666C2.09375 26.4316 1.35547 26.1445 0.652344 25.8047V20.7422C1.87109 21.2812 3.13672 21.7676 4.44922 22.2012C5.76172 22.6348 7.0625 22.8516 8.35156 22.8516C9.24219 22.8516 9.95703 22.7344 10.4961 22.5C11.0469 22.2656 11.4453 21.9434 11.6914 21.5332C11.9375 21.123 12.0605 20.6543 12.0605 20.127C12.0605 19.4824 11.8438 18.9316 11.4102 18.4746C10.9766 18.0176 10.3789 17.5898 9.61719 17.1914C8.86719 16.793 8.01758 16.3652 7.06836 15.9082C6.4707 15.627 5.82031 15.2871 5.11719 14.8887C4.41406 14.4785 3.74609 13.9805 3.11328 13.3945C2.48047 12.8086 1.95898 12.0996 1.54883 11.2676C1.15039 10.4238 0.951172 9.41602 0.951172 8.24414C0.951172 6.70898 1.30273 5.39648 2.00586 4.30664C2.70898 3.2168 3.71094 2.38477 5.01172 1.81055C6.32422 1.22461 7.87109 0.931641 9.65234 0.931641C10.9883 0.931641 12.2598 1.08984 13.4668 1.40625C14.6855 1.71094 15.957 2.15625 17.2812 2.74219L15.5234 6.97852C14.3398 6.49805 13.2793 6.12891 12.3418 5.87109C11.4043 5.60156 10.4492 5.4668 9.47656 5.4668C8.79688 5.4668 8.2168 5.57812 7.73633 5.80078C7.25586 6.01172 6.89258 6.31641 6.64648 6.71484C6.40039 7.10156 6.27734 7.55273 6.27734 8.06836C6.27734 8.67773 6.45312 9.19336 6.80469 9.61523C7.16797 10.0254 7.70703 10.4238 8.42188 10.8105C9.14844 11.1973 10.0508 11.6484 11.1289 12.1641C12.4414 12.7852 13.5605 13.4355 14.4863 14.1152C15.4238 14.7832 16.1445 15.5742 16.6484 16.4883C17.1523 17.3906 17.4043 18.5156 17.4043 19.8633ZM47.6927 14.1152C47.6927 16.0254 47.4642 17.7773 47.0071 19.3711C46.5618 20.9531 45.8704 22.3242 44.9329 23.4844C43.9954 24.6445 42.806 25.5527 41.3645 26.209L47.552 33.1172H40.5735L35.8626 27.3516C35.7806 27.3516 35.7103 27.3516 35.6517 27.3516C35.5931 27.3516 35.5286 27.3516 35.4583 27.3516C33.3606 27.3516 31.5442 27.041 30.0091 26.4199C28.4739 25.7871 27.2024 24.8848 26.1946 23.7129C25.1985 22.541 24.4544 21.1406 23.9622 19.5117C23.47 17.8828 23.2239 16.0723 23.2239 14.0801C23.2239 11.4199 23.6575 9.10547 24.5247 7.13672C25.4036 5.15625 26.7513 3.62109 28.5677 2.53125C30.3841 1.44141 32.6927 0.896484 35.4935 0.896484C38.2825 0.896484 40.5735 1.44141 42.3665 2.53125C44.1712 3.62109 45.5071 5.15625 46.3743 7.13672C47.2532 9.11719 47.6927 11.4434 47.6927 14.1152ZM28.9368 14.1152C28.9368 15.9082 29.1595 17.4551 29.6048 18.7559C30.0618 20.0449 30.7708 21.041 31.7317 21.7441C32.6927 22.4355 33.9349 22.7812 35.4583 22.7812C37.0052 22.7812 38.2591 22.4355 39.22 21.7441C40.181 21.041 40.8782 20.0449 41.3118 18.7559C41.7571 17.4551 41.9798 15.9082 41.9798 14.1152C41.9798 11.4199 41.4759 9.29883 40.4681 7.75195C39.4603 6.20508 37.802 5.43164 35.4935 5.43164C33.9583 5.43164 32.7044 5.7832 31.7317 6.48633C30.7708 7.17773 30.0618 8.17383 29.6048 9.47461C29.1595 10.7637 28.9368 12.3105 28.9368 14.1152ZM86.8932 1.30078L80.3541 27H74.149L70.6685 13.5C70.5982 13.2422 70.5045 12.8496 70.3873 12.3223C70.2701 11.7949 70.1471 11.2207 70.0182 10.5996C69.8893 9.9668 69.7721 9.375 69.6666 8.82422C69.5728 8.26172 69.5084 7.81641 69.4732 7.48828C69.4381 7.81641 69.3678 8.25586 69.2623 8.80664C69.1685 9.35742 69.0572 9.94336 68.9283 10.5645C68.8111 11.1855 68.6939 11.7656 68.5768 12.3047C68.4596 12.8438 68.3658 13.2539 68.2955 13.5352L64.8326 27H58.6451L52.0885 1.30078H57.4498L60.7369 15.3281C60.8307 15.75 60.9361 16.2539 61.0533 16.8398C61.1822 17.4258 61.3053 18.041 61.4225 18.6855C61.5514 19.3184 61.6627 19.9336 61.7564 20.5312C61.8619 21.1172 61.9381 21.627 61.985 22.0605C62.0435 21.6152 62.1197 21.0996 62.2135 20.5137C62.3072 19.916 62.4068 19.3125 62.5123 18.7031C62.6295 18.082 62.7467 17.5078 62.8639 16.9805C62.981 16.4531 63.0865 16.0254 63.1803 15.6973L66.9244 1.30078H72.0748L75.8189 15.6973C75.901 16.0137 75.9947 16.4414 76.1002 16.9805C76.2174 17.5078 76.3346 18.082 76.4518 18.7031C76.5689 19.3242 76.6744 19.9336 76.7682 20.5312C76.8736 21.1172 76.9498 21.627 76.9967 22.0605C77.0787 21.4746 77.19 20.7656 77.3307 19.9336C77.483 19.0898 77.6412 18.252 77.8053 17.4199C77.981 16.5879 78.1334 15.8906 78.2623 15.3281L81.5318 1.30078H86.8932ZM113.754 13.9043C113.754 16.7988 113.197 19.2188 112.084 21.1641C110.982 23.0977 109.383 24.5566 107.285 25.541C105.187 26.5137 102.662 27 99.7089 27H92.4315V1.30078H100.5C103.195 1.30078 105.533 1.78125 107.514 2.74219C109.494 3.69141 111.029 5.10352 112.119 6.97852C113.209 8.8418 113.754 11.1504 113.754 13.9043ZM108.094 14.0449C108.094 12.1465 107.812 10.5879 107.25 9.36914C106.699 8.13867 105.879 7.23047 104.789 6.64453C103.711 6.05859 102.375 5.76562 100.781 5.76562H97.8808V22.5H100.219C102.879 22.5 104.853 21.791 106.142 20.373C107.443 18.9551 108.094 16.8457 108.094 14.0449Z" fill="white"/>
</svg>
